<svg xmlns="http://www.w3.org/2000/svg"  viewBox="0 0 64 64" width="64px" height="64px" baseProfile="basic"><radialGradient id="XmvbIkyK8_x8cjTPM5dvva" cx="32" cy="1466.5" r="30.301" gradientTransform="translate(0 -1434)" gradientUnits="userSpaceOnUse"><stop offset="0" stop-color="#f7e9c2"/><stop offset=".219" stop-color="#fbeecc"/><stop offset=".644" stop-color="#fff3db"/><stop offset="1" stop-color="#fff5e0"/></radialGradient><path fill="url(#XmvbIkyK8_x8cjTPM5dvva)" d="M63.99,36.31C64.1,38.33,62.5,40,60.5,40h-9.48C51.009,40,51,40.009,51,40.02v5.96	c0,0.011,0.009,0.02,0.02,0.02h9.48c1.58,0,2.81,1.46,2.43,3.11C62.66,50.25,61.54,51,60.37,51H59.5c-0.825,0-1.5,0.675-1.5,1.5l0,0	c0,0.825,0.675,1.5,1.5,1.5l0,0c2,0,3.6,1.67,3.49,3.69C62.9,59.58,61.2,61,59.3,61H4c-2.48,0-4.43-2.26-3.92-4.82	C0.47,54.29,2.25,53,4.18,53H5c2.92,0,5.26-2.51,4.98-5.49C9.73,44.91,7.4,43,4.78,43H4c-2.48,0-4.43-2.26-3.92-4.82	C0.47,36.29,2.07,35,4,35l0,0c1.301,0,2.332-1.252,1.899-2.634C5.633,31.52,4.776,31,3.89,31H3.5c-2,0-3.6-1.67-3.49-3.69	C0.1,25.42,1.8,24,3.7,24h7.28c0.011,0,0.02-0.009,0.02-0.02v-4.96c0-0.011-0.009-0.02-0.02-0.02H3.5	c-1.577,0-2.805-1.445-2.432-3.091C1.329,14.757,2.448,14,3.63,14H4.5C5.33,14,6,13.33,6,12.5S5.33,11,4.5,11h-1	c-2,0-3.6-1.67-3.49-3.69C0.1,5.42,1.8,4,3.7,4H60c2.34,0,4.21,2.01,3.98,4.39c-0.19,2.05-2,3.56-4.04,3.61H58.5	c-2.485,0-4.5,2.015-4.5,4.5l0,0c0,2.485,0,4.5,0,4.5h6c2.48,0,4.43,2.26,3.92,4.82C63.53,27.71,61.93,29,60,29l0,0	c-1.1,0-2,0.9-2,2l0,0c0,1.1,0.9,2,2,2h0.3C62.2,33,63.9,34.42,63.99,36.31z"/><linearGradient id="XmvbIkyK8_x8cjTPM5dvvb" x1="32" x2="32" y1="1439.084" y2="1492.259" gradientTransform="translate(0 -1434)" gradientUnits="userSpaceOnUse"><stop offset="0" stop-color="#7c9eea"/><stop offset=".277" stop-color="#798ce6"/><stop offset=".737" stop-color="#7780e3"/><stop offset="1" stop-color="#7363dc"/></linearGradient><path fill="url(#XmvbIkyK8_x8cjTPM5dvvb)" d="M17,8h30c4.971,0,9,4.029,9,9v30c0,4.971-4.029,9-9,9H17c-4.971,0-9-4.029-9-9V17	C8,12.029,12.029,8,17,8z"/><linearGradient id="XmvbIkyK8_x8cjTPM5dvvc" x1="32" x2="32" y1="1439.084" y2="1492.259" gradientTransform="translate(0 -1434)" gradientUnits="userSpaceOnUse"><stop offset="0" stop-color="#7c9eea"/><stop offset=".277" stop-color="#798ce6"/><stop offset=".737" stop-color="#7780e3"/><stop offset="1" stop-color="#7363dc"/></linearGradient><path fill="url(#XmvbIkyK8_x8cjTPM5dvvc)" d="M56,17v30c0,4.97-4.03,9-9,9H17c-4.97,0-9-4.03-9-9V17c0-4.97,4.03-9,9-9h30	C51.97,8,56,12.03,56,17z"/><linearGradient id="XmvbIkyK8_x8cjTPM5dvvd" x1="14.5" x2="14.5" y1="1445.961" y2="1502.22" gradientTransform="translate(0 -1434)" gradientUnits="userSpaceOnUse"><stop offset="0" stop-color="#7c9eea"/><stop offset=".25" stop-color="#798ce6"/><stop offset=".288" stop-color="#7780e3"/><stop offset=".485" stop-color="#7571df"/><stop offset=".721" stop-color="#7366dd"/><stop offset="1" stop-color="#7363dc"/></linearGradient><path fill="url(#XmvbIkyK8_x8cjTPM5dvvd)" d="M21,9.5c0,0.83-0.67,1.5-1.5,1.5H15c-0.55,0-1.05,0.22-1.41,0.59C13.22,11.95,13,12.45,13,13	c0,1.1,0.9,2,2,2h0.5c1.47,0,2.64,1.26,2.49,2.76c-0.13,1.3-1.32,2.24-2.63,2.24H8v-3c0-4.97,4.03-9,9-9h2.5C20.33,8,21,8.67,21,9.5	z"/><linearGradient id="XmvbIkyK8_x8cjTPM5dvve" x1="51.248" x2="47.137" y1="1403.774" y2="1492.404" gradientTransform="translate(0 -1434)" gradientUnits="userSpaceOnUse"><stop offset="0" stop-color="#7c9eea"/><stop offset=".277" stop-color="#798ce6"/><stop offset=".737" stop-color="#7780e3"/><stop offset=".971" stop-color="#7363dc"/></linearGradient><path fill="url(#XmvbIkyK8_x8cjTPM5dvve)" d="M56,44v3c0,4.971-4.029,9-9,9h-5.879c-0.997,0-1.927-0.675-2.093-1.659	C38.819,53.092,39.788,52,41,52h8.5c0.828,0,1.5-0.672,1.5-1.5l0,0c0-0.828-0.672-1.5-1.5-1.5h-0.856c-1.308,0-2.5-0.94-2.631-2.241	C45.862,45.263,47.035,44,48.5,44H56z"/><path fill="#fff" d="M48,25.333l1.333-8H41.12l0.8-4H22.667v4h-8L16,26.667l-1.333,20l8-2.4v6.987l12-2.4v-5.741	l14.623,0.979L48,25.333z M25.333,16h13.333l-1.333,6.667H32V28h5.333v6.667H32v12L25.333,48V16z"/></svg>